<?xml version="1.0" standalone="no"?>
<!DOCTYPE svg PUBLIC "-//W3C//DTD SVG 20010904//EN"
 "http://www.w3.org/TR/2001/REC-SVG-20010904/DTD/svg10.dtd">
<svg version="1.0" xmlns="http://www.w3.org/2000/svg"
 width="512.000000pt" height="512.000000pt" viewBox="0 0 512.000000 512.000000"
 preserveAspectRatio="xMidYMid meet">
<metadata>
Created by potrace 1.14, written by Peter Selinger 2001-2017
</metadata>
<g transform="translate(0.000000,512.000000) scale(0.100000,-0.100000)"
fill="#000000" stroke="none">
<path d="M2549 4958 c-13 -18 -27 -37 -31 -43 -102 -135 -196 -256 -216 -277
l-25 -27 -275 -1 c-261 -1 -277 -2 -294 -20 -11 -11 -16 -20 -13 -20 3 0 -6
-22 -20 -50 -14 -27 -24 -50 -21 -50 2 0 -22 -62 -53 -137 l-56 -138 -280 -3
c-175 -1 -283 -6 -290 -13 -6 -6 -10 -117 -11 -307 -2 -373 -1 -355 -18 -349
-8 3 -17 3 -20 -1 -4 -3 -13 -7 -20 -8 -32 -5 -125 -40 -168 -64 -10 -6 -24
-10 -32 -10 -8 0 -16 -4 -18 -8 -2 -4 -21 -15 -43 -23 -48 -18 -52 -33 -26
-90 11 -24 49 -116 85 -203 l65 -160 -43 -40 c-57 -54 -96 -87 -188 -159 -42
-32 -79 -64 -81 -71 -3 -6 -43 -29 -90 -51 -48 -21 -88 -44 -91 -50 -2 -6 26
-31 63 -55 36 -23 87 -57 113 -74 27 -17 48 -34 48 -38 0 -5 4 -8 9 -8 8 0
134 -83 231 -152 l24 -18 -21 -62 c-11 -35 -32 -92 -46 -128 -13 -36 -41 -109
-62 -163 -22 -60 -35 -107 -31 -120 4 -15 57 -53 171 -121 91 -55 171 -106
178 -114 9 -11 12 -83 13 -274 0 -149 4 -262 10 -267 8 -9 67 -16 89 -11 6 1
15 1 20 0 6 -1 117 -3 248 -3 l238 -2 19 -25 c11 -14 20 -30 20 -37 0 -6 3
-13 8 -15 4 -2 23 -34 42 -73 19 -38 45 -80 57 -94 l22 -25 248 -1 c138 0 255
-5 263 -10 8 -6 26 -32 40 -60 14 -27 28 -54 33 -60 10 -13 152 -247 183 -302
13 -23 24 -51 24 -63 0 -14 4 -19 13 -14 6 4 3 -2 -8 -13 -11 -11 -24 -18 -30
-15 -5 3 -4 -1 3 -9 8 -9 15 -10 20 -4 4 6 18 15 32 21 14 7 34 29 45 50 11
22 23 41 26 44 3 3 48 73 99 155 52 83 98 155 102 160 4 6 23 33 41 60 35 51
73 80 92 67 5 -4 98 -7 205 -7 227 0 226 0 287 93 21 31 40 62 43 67 19 39 74
105 88 106 9 1 143 2 297 3 154 1 286 5 293 9 9 6 12 73 12 275 0 147 3 277 6
290 4 15 14 22 30 22 13 0 24 4 24 8 0 4 15 13 33 20 19 7 89 46 156 88 138
86 135 79 90 179 -12 28 -23 52 -24 55 -1 3 -9 23 -19 45 -10 22 -24 58 -32
80 -8 22 -18 49 -23 60 -5 11 -16 41 -24 67 -18 56 -15 62 66 107 32 17 100
63 152 102 52 38 130 91 172 117 43 26 79 55 81 65 3 12 -24 29 -105 68 -59
29 -150 84 -203 123 -52 39 -101 76 -109 81 -7 6 -27 22 -43 38 -39 35 -39 32
101 427 27 77 28 85 13 95 -20 13 -262 108 -282 110 -23 3 -49 19 -55 33 -4 9
-6 157 -6 329 1 290 0 312 -16 316 -10 3 -139 6 -287 6 -148 1 -272 4 -276 6
-10 6 -87 154 -175 338 l-37 77 -262 0 c-195 0 -266 3 -277 13 -9 6 -33 37
-55 67 -21 30 -42 60 -46 65 -5 6 -22 28 -38 50 -16 22 -33 45 -37 50 -5 6
-16 22 -25 36 -9 14 -23 33 -30 41 -7 7 -18 22 -24 33 -17 30 -30 28 -55 -7z
m-64 -1050 c10 -9 12 -528 2 -528 -4 0 -6 -3 -6 -7 3 -20 -2 -24 -15 -14 -9 8
-16 8 -20 2 -4 -6 -14 -7 -23 -4 -10 4 -14 2 -10 -4 4 -6 -3 -8 -18 -5 -14 2
-25 0 -25 -6 0 -6 -8 -10 -17 -10 -33 3 -165 -61 -218 -105 -21 -17 -45 -32
-52 -33 -7 -1 -85 68 -173 155 l-160 157 5 65 c8 98 8 99 66 131 92 52 209
108 224 108 8 0 15 5 15 12 0 6 3 8 7 5 3 -4 11 -3 17 2 9 6 143 52 166 56 3
1 23 5 45 10 22 4 47 7 56 6 8 -1 26 2 38 7 27 10 87 10 96 0z m270 -3 c33 -5
84 -17 170 -39 6 -2 17 -6 25 -9 8 -3 33 -11 55 -17 50 -14 53 -15 205 -88
170 -82 162 -74 177 -172 3 -19 10 -41 16 -48 12 -15 11 -16 -171 -199 -73
-73 -136 -133 -141 -133 -4 0 -27 14 -50 30 -23 17 -61 39 -84 49 -71 32 -142
60 -168 65 -13 3 -37 9 -54 13 -16 5 -37 9 -45 8 -8 -1 -20 2 -25 6 -12 9 -12
519 -1 537 3 6 16 9 28 7 12 -3 40 -7 63 -10z m-1040 -534 c16 -19 54 -60 82
-90 29 -31 53 -59 53 -62 0 -3 10 -17 23 -31 60 -67 76 -88 78 -105 4 -19 -30
-83 -44 -83 -4 0 -6 -4 -3 -8 3 -5 -6 -30 -19 -57 -14 -27 -25 -56 -25 -66 0
-10 -4 -20 -9 -23 -9 -6 -24 -79 -26 -129 -1 -16 -7 -32 -14 -37 -8 -4 -126
-8 -263 -9 -255 -1 -296 4 -283 36 3 9 8 32 11 52 13 84 77 303 96 327 5 7 8
16 6 20 -1 5 6 27 16 49 10 22 24 56 31 75 20 55 76 169 85 175 6 4 30 9 97
19 7 1 15 5 19 9 9 9 54 -22 89 -62z m1855 40 c37 -12 59 -26 67 -42 32 -62
112 -240 133 -294 12 -33 26 -69 31 -80 10 -25 46 -151 54 -187 25 -127 25
-126 9 -132 -19 -7 -471 -7 -500 0 -18 5 -22 15 -27 67 -9 91 -58 205 -134
310 -39 54 -41 60 -28 80 23 34 232 237 244 237 6 0 10 4 9 9 -2 5 8 20 22 34
27 26 34 26 120 -2z m-1144 -107 c-5 -13 -3 -14 6 -7 7 6 23 13 36 16 26 6 24
13 23 -147 0 -71 -4 -113 -12 -120 -9 -8 -10 -7 -5 4 5 9 2 8 -7 -2 -8 -10
-20 -18 -26 -18 -7 0 -31 -10 -54 -23 -52 -28 -56 -28 -97 3 -18 14 -38 24
-44 22 -6 -2 -8 -1 -4 3 8 8 -36 55 -52 55 -6 0 -9 4 -6 8 3 5 -3 18 -14 30
-14 14 -16 22 -7 26 9 3 8 7 -3 15 -13 10 -13 11 0 12 8 1 18 1 23 0 4 0 7 6
7 15 0 14 2 15 17 3 11 -10 14 -10 9 -1 -4 6 -4 17 0 24 5 8 10 6 15 -8 7 -17
8 -17 8 4 1 12 6 22 12 22 5 0 7 -4 4 -10 -13 -20 7 -9 30 18 13 15 25 21 25
15 0 -7 -5 -13 -12 -13 -6 0 -8 -3 -5 -6 4 -4 13 -2 20 4 8 7 17 9 21 5 4 -4
4 1 0 12 -7 18 -6 18 9 6 10 -8 20 -11 24 -7 3 3 1 6 -5 6 -7 0 -12 5 -12 11
0 5 4 8 9 4 5 -3 12 -1 16 4 3 6 12 8 20 5 8 -4 18 1 21 10 3 9 8 16 11 16 3
0 2 -7 -1 -16z m281 -11 c3 4 1 7 -5 7 -7 0 -12 4 -12 8 0 5 8 8 18 6 30 -4
62 -16 62 -23 0 -4 19 -16 43 -26 49 -22 69 -39 59 -51 -4 -5 4 0 18 11 14 11
19 13 13 5 -7 -8 -13 -21 -13 -29 0 -15 -22 -47 -64 -93 -9 -10 -16 -22 -16
-26 0 -5 -13 -22 -29 -38 -24 -23 -36 -28 -68 -25 -51 4 -58 12 -55 63 3 43 3
58 1 81 -1 6 0 45 1 85 3 70 4 72 22 56 10 -10 21 -14 25 -11z m417 -255 c-3
-4 2 -8 11 -8 9 0 14 -4 11 -8 -3 -5 6 -20 19 -34 13 -14 21 -29 18 -32 -4 -3
0 -6 7 -6 7 0 10 -3 7 -6 -4 -4 2 -19 13 -34 11 -16 20 -33 20 -39 0 -6 4 -19
9 -29 5 -9 15 -36 22 -59 6 -23 21 -52 31 -63 12 -13 14 -20 6 -20 -10 0 -10
-2 0 -9 21 -13 -17 -17 -171 -16 l-139 0 -13 39 c-7 21 -25 50 -39 65 -29 30
-34 59 -11 67 8 4 15 10 15 16 0 5 10 20 23 33 12 13 48 52 80 88 32 35 64 64
72 64 8 0 12 -4 9 -9z m-1096 -37 c12 -10 19 -21 15 -25 -3 -3 1 -6 11 -6 9 0
14 -4 11 -10 -3 -5 -2 -10 2 -10 5 0 27 -24 48 -52 22 -29 42 -55 45 -58 33
-29 63 -100 42 -100 -4 0 -9 -12 -10 -26 -1 -14 -4 -30 -7 -35 -4 -6 -276 -7
-317 0 -3 1 -5 9 -3 19 2 9 4 25 4 35 1 10 5 15 11 12 6 -4 7 1 3 11 -4 11 1
22 13 31 15 11 16 15 5 22 -14 9 -3 41 15 44 5 1 8 6 6 10 -1 4 3 18 10 30 7
12 11 25 10 30 -1 4 3 7 8 7 6 0 10 7 10 16 0 9 5 12 12 8 8 -5 9 -2 5 9 -3
10 -2 17 4 17 6 0 7 5 4 10 -3 6 -1 10 5 10 6 0 8 5 5 10 -10 17 10 11 33 -9z
m-212 -514 c3 -3 12 -34 20 -69 19 -86 19 -86 45 -143 12 -27 23 -52 24 -55 0
-3 14 -25 30 -50 16 -25 28 -48 27 -52 -1 -5 2 -8 7 -8 17 0 16 -45 -2 -65
-102 -117 -320 -346 -337 -354 -8 -5 -30 -4 -48 1 -26 7 -37 19 -55 56 -12 26
-25 49 -28 52 -10 9 -119 240 -119 253 0 6 -7 24 -15 40 -22 43 -83 236 -94
300 -6 32 -13 62 -16 66 -8 14 18 29 55 33 56 5 500 1 506 -5z m178 -22 c9
-14 16 -31 16 -40 0 -8 5 -15 10 -15 6 0 10 -9 10 -20 0 -11 3 -20 8 -20 4 0
16 -18 26 -40 11 -22 23 -40 29 -40 5 0 7 -7 3 -15 -3 -8 -1 -15 4 -15 6 0 10
-10 10 -22 0 -25 -43 -82 -54 -71 -3 3 -6 -1 -6 -10 0 -10 -4 -17 -10 -17 -13
0 -50 41 -50 56 0 7 -5 14 -11 16 -5 2 -12 10 -14 18 -9 39 -18 60 -27 60 -6
0 -4 8 3 17 10 11 10 14 2 9 -8 -4 -13 -1 -13 8 0 9 -4 16 -10 16 -5 0 -10 5
-10 11 0 5 5 7 11 4 6 -4 5 2 -2 13 -7 12 -18 18 -24 14 -5 -3 -3 3 5 13 9 11
10 16 3 11 -8 -4 -13 -1 -13 8 0 9 6 16 13 16 8 0 8 3 -2 9 -13 8 -13 12 0 28
13 16 12 17 -3 5 -10 -8 -18 -9 -23 -3 -3 6 4 13 17 15 73 16 80 14 102 -19z
m1306 15 c6 -10 5 -16 -1 -19 -7 -2 -6 -7 2 -12 11 -7 10 -9 -4 -9 -10 0 -16
-4 -12 -9 7 -12 -15 -61 -27 -61 -5 0 -5 -7 0 -16 11 -20 -17 -83 -38 -84 -10
-1 -11 -3 -3 -7 10 -3 10 -10 1 -26 -6 -12 -15 -25 -20 -28 -5 -3 -11 -15 -12
-25 -2 -10 -9 -18 -16 -16 -6 1 -9 -2 -5 -8 3 -5 0 -13 -9 -16 -8 -3 -12 -12
-9 -20 8 -21 -37 -12 -53 11 -8 10 -14 15 -14 10 0 -5 -8 2 -17 15 -9 14 -23
29 -30 33 -7 4 -13 15 -13 22 0 8 -5 15 -11 15 -5 0 -8 4 -5 9 4 5 1 11 -4 13
-6 2 4 33 23 73 19 39 40 87 48 108 7 20 17 37 22 37 4 0 6 4 2 9 -7 13 17 17
113 16 62 0 85 -4 92 -15z m566 -3 c3 -9 3 -30 0 -45 -3 -15 -8 -43 -11 -62
-19 -112 -61 -270 -91 -337 -8 -17 -14 -34 -14 -38 0 -3 -11 -31 -25 -61 -14
-30 -25 -59 -25 -64 0 -6 -5 -10 -10 -10 -6 0 -9 -3 -8 -7 6 -20 -68 -136 -91
-145 -63 -25 -84 -17 -167 72 -44 46 -118 124 -166 174 -52 54 -88 99 -88 111
0 11 16 38 34 60 19 22 45 62 58 90 12 27 25 52 28 55 8 7 30 83 45 153 9 42
9 57 1 57 -7 0 -7 3 1 8 7 4 127 7 268 7 235 0 256 -1 261 -18z m-1502 -271
c17 -12 54 -32 81 -45 l50 -22 0 -130 c0 -71 -2 -129 -5 -130 -3 0 -13 -2 -22
-4 -10 -2 -18 1 -18 6 0 6 -8 6 -19 -1 -11 -6 -21 -6 -23 -1 -2 5 -16 11 -33
13 -16 2 -33 6 -36 10 -3 5 -17 9 -31 10 -15 1 -24 6 -22 10 3 4 -1 8 -8 8
-19 0 -68 23 -68 33 0 4 -9 7 -21 7 -11 0 -17 5 -14 10 3 6 -1 10 -9 10 -8 0
-22 10 -30 22 -14 19 -14 23 2 35 11 9 12 12 2 7 -8 -4 7 14 33 39 27 26 47
47 45 47 -3 0 13 19 34 43 45 50 69 55 112 23z m400 -28 c-5 -9 -2 -9 9 1 11
9 17 10 17 2 0 -6 3 -10 8 -10 16 3 35 -1 30 -7 -3 -3 9 -20 28 -38 19 -18 34
-38 34 -45 0 -7 5 -9 10 -6 14 9 13 -8 -2 -23 -9 -9 -9 -15 -1 -23 8 -8 11 -6
10 6 -1 10 4 20 11 22 7 3 12 -4 12 -17 0 -12 4 -19 9 -16 5 3 12 -1 15 -10 7
-19 -10 -44 -29 -44 -8 0 -15 -5 -17 -11 -4 -13 -66 -20 -73 -8 -3 4 4 6 15 4
11 -2 20 0 20 6 0 10 -35 7 -46 -4 -4 -4 -14 -1 -22 6 -13 9 -14 9 -8 0 4 -7
2 -13 -3 -13 -6 0 -11 -5 -11 -11 0 -6 5 -7 13 -2 22 14 33 11 35 -11 0 -12
-2 -16 -6 -9 -4 7 -18 11 -30 10 -19 -1 -26 -9 -24 -28 1 -10 -33 -6 -40 5 -6
8 -8 8 -8 0 0 -6 -11 -11 -24 -11 -18 0 -23 5 -23 23 0 13 3 24 8 24 4 0 6 -9
4 -20 -3 -17 -1 -19 16 -10 23 13 25 22 2 13 -9 -4 -14 -2 -10 4 3 5 -3 17
-14 26 -16 14 -17 21 -9 37 6 11 7 20 2 20 -7 0 -7 28 -3 125 1 6 10 16 22 23
17 11 20 11 13 0 -6 -10 -4 -10 9 1 9 7 17 10 17 7 0 -4 7 0 16 8 19 19 28 21
18 4z m-626 -254 c67 -45 91 -56 104 -48 7 4 8 3 4 -4 -10 -16 88 -46 194 -59
25 -3 47 -7 50 -10 3 -3 5 -118 6 -256 0 -309 7 -293 -128 -272 -24 4 -56 9
-73 11 -116 18 -369 112 -447 166 -16 11 -28 17 -28 13 0 -3 -20 8 -44 25 -25
16 -45 38 -45 48 0 9 -3 33 -6 52 -5 32 -1 40 47 91 29 31 102 108 162 172 99
105 146 140 154 112 2 -5 24 -24 50 -41z m988 -21 c33 -36 68 -76 79 -89 11
-12 31 -35 44 -50 13 -16 50 -58 81 -94 31 -36 59 -73 63 -82 9 -26 -32 -77
-88 -109 -63 -36 -183 -99 -190 -100 -2 0 -22 -7 -42 -16 -61 -25 -194 -63
-243 -69 -25 -3 -71 -12 -103 -19 -52 -12 -58 -12 -65 3 -6 13 -9 475 -3 527
0 6 9 11 19 12 63 7 91 11 122 17 46 10 220 95 220 107 0 6 4 8 9 5 5 -3 11 1
15 9 9 25 22 17 82 -52z"/>
<path d="M2380 3286 c0 -2 8 -10 18 -17 15 -13 16 -12 3 4 -13 16 -21 21 -21
13z"/>
<path d="M2230 3120 c0 -5 5 -10 11 -10 5 0 7 5 4 10 -3 6 -8 10 -11 10 -2 0
-4 -4 -4 -10z"/>
<path d="M2814 3202 c4 -3 14 -7 22 -8 9 -1 13 0 10 4 -4 3 -14 7 -22 8 -9 1
-13 0 -10 -4z"/>
<path d="M2921 1996 c-10 -11 -9 -14 1 -12 14 2 23 15 15 22 -2 2 -10 -2 -16
-10z"/>
<path d="M2758 1973 c7 -3 16 -2 19 1 4 3 -2 6 -13 5 -11 0 -14 -3 -6 -6z"/>
<path d="M2759 1955 c-1 -3 -2 -11 -3 -17 -1 -7 -7 -12 -14 -11 -6 2 -9 -4 -5
-13 7 -19 22 -6 28 24 3 18 -2 33 -6 17z"/>
</g>
</svg>
